<svg xmlns="http://www.w3.org/2000/svg" viewBox="0 0 72.5 66.94" id="chat">
  <g id="Layer_2">
    <g id="icon">
      <path d="M52.5 10.5h-22a20.06 20.06 0 0 0-20 20v6A20.06 20.06 0 0 0 24 55.39v11.55L34.46 56.5h18a20.06 20.06 0 0 0 20-20v-6a20.06 20.06 0 0 0-19.96-20z" style="fill:#b76a8a;opacity:.15"></path>
      <path d="M44.5 2.5h-22a20.06 20.06 0 0 0-20 20v6A20.06 20.06 0 0 0 16 47.39v11.55L26.46 48.5h18a20.06 20.06 0 0 0 20-20v-6a20.06 20.06 0 0 0-19.96-20z" style="fill:none;stroke:#6a80b9;stroke-miterlimit:10;stroke-width:5px"></path>
    </g>
  </g>
</svg>
